<?xml version="1.0" encoding="UTF-8" standalone="no"?>
<!DOCTYPE svg PUBLIC "-//W3C//DTD SVG 1.1//EN" "http://www.w3.org/Graphics/SVG/1.1/DTD/svg11.dtd">
<svg xmlns="http://www.w3.org/2000/svg" version="1.1" viewBox="0 0 200 200" width="200" height="200">
<g stroke-width="2.00" fill="none" stroke-linecap="butt">
<path stroke="#eeeeee" d="
  M 15.31 124.93
  C 29.63 164.55 66.11 190.78 108.60 187.11
  C 139.75 184.42 167.45 165.34 180.97 137.16
  C 197.32 103.07 189.87 65.12 165.46 36.94
  C 138.27 5.54 91.48 -2.37 55.48 17.97
  C 17.99 39.16 0.63 84.34 15.31 124.93"
/>
<path stroke="#eeeeee" d="
  M 185.77 95.16
  A 86.97 86.97 0.0 0 0 98.80 8.19
  A 86.97 86.97 0.0 0 0 11.83 95.16
  A 86.97 86.97 0.0 0 0 98.80 182.13
  A 86.97 86.97 0.0 0 0 185.77 95.16"
/>
<path stroke="#91afd6" d="
  M 72.94 69.94
  Q 56.09 69.94 39.25 70.34
  C 35.38 70.44 34.51 72.73 34.51 76.30
  Q 34.50 91.79 34.50 107.29
  C 34.50 110.30 35.95 112.95 39.07 112.96
  Q 55.54 113.04 72.17 112.99
  A 0.84 0.83 -76.9 0 0 72.92 112.52
  L 111.59 33.18
  A 1.18 1.04 -45.5 0 0 111.64 32.27
  Q 110.37 29.15 107.17 29.05
  Q 102.57 28.91 80.50 28.79
  Q 73.67 28.75 73.63 35.56
  Q 73.52 52.50 73.44 69.43
  A 0.51 0.50 -90.0 0 1 72.94 69.94"
/>
<path stroke="#b1afd3" d="
  M 160.2107 73.9148
  A 3.81 3.81 0.0 0 0 156.4140 70.0915
  L 126.8942 69.9885
  A 3.81 3.81 0.0 0 0 123.0709 73.7852
  L 123.0693 74.2252
  A 3.81 3.81 0.0 0 0 126.8660 78.0485
  L 156.3858 78.1515
  A 3.81 3.81 0.0 0 0 160.2091 74.3548
  L 160.2107 73.9148"
/>
<path stroke="#8cc5e5" d="
  M 91.14 111.06
  C 96.81 110.92 102.83 110.79 108.56 111.15
  A 0.42 0.42 1.9 0 0 109.01 110.73
  L 109.00 71.10
  Q 109.00 69.97 108.54 71.00
  L 90.82 110.58
  A 0.34 0.34 -79.0 0 0 91.14 111.06"
/>
<path stroke="#f3bc94" d="
  M 160.26 92.01
  A 4.00 4.00 0.0 0 0 156.26 88.01
  L 127.00 88.01
  A 4.00 4.00 0.0 0 0 123.00 92.01
  L 123.00 92.25
  A 4.00 4.00 0.0 0 0 127.00 96.25
  L 156.26 96.25
  A 4.00 4.00 0.0 0 0 160.26 92.25
  L 160.26 92.01"
/>
<path stroke="#c6e2a2" d="
  M 160.28 108.86
  A 3.86 3.86 0.0 0 0 156.42 105.00
  L 126.90 105.00
  A 3.86 3.86 0.0 0 0 123.04 108.86
  L 123.04 109.12
  A 3.86 3.86 0.0 0 0 126.90 112.98
  L 156.42 112.98
  A 3.86 3.86 0.0 0 0 160.28 109.12
  L 160.28 108.86"
/>
<path stroke="#8cc5e5" d="
  M 75.99 156.61
  A 2.96 2.86 66.6 0 0 78.03 157.46
  L 108.40 157.40
  A 0.50 0.50 0.0 0 0 108.90 156.90
  L 108.96 124.29
  A 0.52 0.50 0.0 0 0 108.44 123.79
  L 85.35 123.76
  A 0.71 0.70 -77.5 0 0 84.71 124.17
  Q 79.55 135.72 74.36 147.11
  Q 71.87 152.58 75.99 156.61"
/>
</g>
<g fill="#ffffff">
<path d="
  M 0.00 0.00
  L 200.00 0.00
  L 200.00 200.00
  L 0.00 200.00
  L 0.00 0.00
  Z
  M 15.31 124.93
  C 29.63 164.55 66.11 190.78 108.60 187.11
  C 139.75 184.42 167.45 165.34 180.97 137.16
  C 197.32 103.07 189.87 65.12 165.46 36.94
  C 138.27 5.54 91.48 -2.37 55.48 17.97
  C 17.99 39.16 0.63 84.34 15.31 124.93
  Z"
/>
<path d="
  M 185.77 95.16
  A 86.97 86.97 0.0 0 1 98.80 182.13
  A 86.97 86.97 0.0 0 1 11.83 95.16
  A 86.97 86.97 0.0 0 1 98.80 8.19
  A 86.97 86.97 0.0 0 1 185.77 95.16
  Z
  M 72.94 69.94
  Q 56.09 69.94 39.25 70.34
  C 35.38 70.44 34.51 72.73 34.51 76.30
  Q 34.50 91.79 34.50 107.29
  C 34.50 110.30 35.95 112.95 39.07 112.96
  Q 55.54 113.04 72.17 112.99
  A 0.84 0.83 -76.9 0 0 72.92 112.52
  L 111.59 33.18
  A 1.18 1.04 -45.5 0 0 111.64 32.27
  Q 110.37 29.15 107.17 29.05
  Q 102.57 28.91 80.50 28.79
  Q 73.67 28.75 73.63 35.56
  Q 73.52 52.50 73.44 69.43
  A 0.51 0.50 -90.0 0 1 72.94 69.94
  Z
  M 160.2107 73.9148
  A 3.81 3.81 0.0 0 0 156.4140 70.0915
  L 126.8942 69.9885
  A 3.81 3.81 0.0 0 0 123.0709 73.7852
  L 123.0693 74.2252
  A 3.81 3.81 0.0 0 0 126.8660 78.0485
  L 156.3858 78.1515
  A 3.81 3.81 0.0 0 0 160.2091 74.3548
  L 160.2107 73.9148
  Z
  M 91.14 111.06
  C 96.81 110.92 102.83 110.79 108.56 111.15
  A 0.42 0.42 1.9 0 0 109.01 110.73
  L 109.00 71.10
  Q 109.00 69.97 108.54 71.00
  L 90.82 110.58
  A 0.34 0.34 -79.0 0 0 91.14 111.06
  Z
  M 160.26 92.01
  A 4.00 4.00 0.0 0 0 156.26 88.01
  L 127.00 88.01
  A 4.00 4.00 0.0 0 0 123.00 92.01
  L 123.00 92.25
  A 4.00 4.00 0.0 0 0 127.00 96.25
  L 156.26 96.25
  A 4.00 4.00 0.0 0 0 160.26 92.25
  L 160.26 92.01
  Z
  M 160.28 108.86
  A 3.86 3.86 0.0 0 0 156.42 105.00
  L 126.90 105.00
  A 3.86 3.86 0.0 0 0 123.04 108.86
  L 123.04 109.12
  A 3.86 3.86 0.0 0 0 126.90 112.98
  L 156.42 112.98
  A 3.86 3.86 0.0 0 0 160.28 109.12
  L 160.28 108.86
  Z
  M 75.99 156.61
  A 2.96 2.86 66.6 0 0 78.03 157.46
  L 108.40 157.40
  A 0.50 0.50 0.0 0 0 108.90 156.90
  L 108.96 124.29
  A 0.52 0.50 0.0 0 0 108.44 123.79
  L 85.35 123.76
  A 0.71 0.70 -77.5 0 0 84.71 124.17
  Q 79.55 135.72 74.36 147.11
  Q 71.87 152.58 75.99 156.61
  Z"
/>
</g>
<path fill="#235ead" d="
  M 73.44 69.43
  Q 73.52 52.50 73.63 35.56
  Q 73.67 28.75 80.50 28.79
  Q 102.57 28.91 107.17 29.05
  Q 110.37 29.15 111.64 32.27
  A 1.18 1.04 -45.5 0 1 111.59 33.18
  L 72.92 112.52
  A 0.84 0.83 -76.9 0 1 72.17 112.99
  Q 55.54 113.04 39.07 112.96
  C 35.95 112.95 34.50 110.30 34.50 107.29
  Q 34.50 91.79 34.51 76.30
  C 34.51 72.73 35.38 70.44 39.25 70.34
  Q 56.09 69.94 72.94 69.94
  A 0.51 0.50 -90.0 0 0 73.44 69.43
  Z"
/>
<path fill="#dcdcdc" d="
  M 108.60 187.11
  C 66.11 190.78 29.63 164.55 15.31 124.93
  C 0.63 84.34 17.99 39.16 55.48 17.97
  C 91.48 -2.37 138.27 5.54 165.46 36.94
  C 189.87 65.12 197.32 103.07 180.97 137.16
  C 167.45 165.34 139.75 184.42 108.60 187.11
  Z
  M 185.77 95.16
  A 86.97 86.97 0.0 0 0 98.80 8.19
  A 86.97 86.97 0.0 0 0 11.83 95.16
  A 86.97 86.97 0.0 0 0 98.80 182.13
  A 86.97 86.97 0.0 0 0 185.77 95.16
  Z"
/>
<path fill="#635ea6" d="
  M 160.2091 74.3548
  A 3.81 3.81 0.0 0 1 156.3858 78.1515
  L 126.8660 78.0485
  A 3.81 3.81 0.0 0 1 123.0693 74.2252
  L 123.0709 73.7852
  A 3.81 3.81 0.0 0 1 126.8942 69.9885
  L 156.4140 70.0915
  A 3.81 3.81 0.0 0 1 160.2107 73.9148
  L 160.2091 74.3548
  Z"
/>
<path fill="#e77929" d="
  M 160.26 92.25
  A 4.00 4.00 0.0 0 1 156.26 96.25
  L 127.00 96.25
  A 4.00 4.00 0.0 0 1 123.00 92.25
  L 123.00 92.01
  A 4.00 4.00 0.0 0 1 127.00 88.01
  L 156.26 88.01
  A 4.00 4.00 0.0 0 1 160.26 92.01
  L 160.26 92.25
  Z"
/>
<path fill="#8dc444" d="
  M 160.28 109.12
  A 3.86 3.86 0.0 0 1 156.42 112.98
  L 126.90 112.98
  A 3.86 3.86 0.0 0 1 123.04 109.12
  L 123.04 108.86
  A 3.86 3.86 0.0 0 1 126.90 105.00
  L 156.42 105.00
  A 3.86 3.86 0.0 0 1 160.28 108.86
  L 160.28 109.12
  Z"
/>
<g fill="#198bcb">
<path d="
  M 108.56 111.15
  C 102.83 110.79 96.81 110.92 91.14 111.06
  A 0.34 0.34 -79.0 0 1 90.82 110.58
  L 108.54 71.00
  Q 109.00 69.97 109.00 71.10
  L 109.01 110.73
  A 0.42 0.42 1.9 0 1 108.56 111.15
  Z"
/>
<path d="
  M 75.99 156.61
  Q 71.87 152.58 74.36 147.11
  Q 79.55 135.72 84.71 124.17
  A 0.71 0.70 -77.5 0 1 85.35 123.76
  L 108.44 123.79
  A 0.52 0.50 0.0 0 1 108.96 124.29
  L 108.90 156.90
  A 0.50 0.50 0.0 0 1 108.40 157.40
  L 78.03 157.46
  A 2.96 2.86 66.6 0 1 75.99 156.61
  Z"
/>
</g>
</svg>
