<?xml version="1.0" encoding="UTF-8" standalone="no"?>
<!DOCTYPE svg PUBLIC "-//W3C//DTD SVG 1.1//EN" "http://www.w3.org/Graphics/SVG/1.1/DTD/svg11.dtd">
<svg xmlns="http://www.w3.org/2000/svg" version="1.1" viewBox="0 0 390 250" width="390" height="250">
<g stroke-width="2.00" fill="none" stroke-linecap="butt">
<path stroke="#1867C0" d="
  M 145.29 16.00
  Q 145.01 20.05 145.92 24.00"
/>
<path stroke="#1867C0" d="
  M 295.97 100.83
  Q 299.96 101.48 303.96 100.50"
/>
<path stroke="#1867C0" d="
  M 304.00 108.29
  Q 302.36 108.05 297.25 108.00
  Q 295.92 107.99 295.96 109.00"
/>
<path stroke="#1867C0" d="
  M 163.50 147.96
  Q 162.65 151.93 162.79 156.00"
/>
<path stroke="#1867C0" d="
  M 153.75 155.96
  Q 154.23 151.83 152.71 148.00"
/>
<path stroke="#1867C0" d="
  M 97.00 109.29
  L 89.81 109.06
  A 0.85 0.68 9.7 0 0 89.03 109.49
  Q 88.90 109.82 88.96 110.25"
/>
<path stroke="#1867C0" d="
  M 88.96 102.00
  Q 92.98 102.66 97.00 101.96"
/>
<path stroke="#1867C0" d="
  M 134.29 24.08
  L 135.35 16.00"
/>
</g>
<path fill="#1867C0" d="
  M 145.29 16.00
  Q 145.01 20.05 145.92 24.00
  L 157.05 121.07
  A 1.40 1.01 -79.7 0 0 157.46 121.93
  Q 157.96 122.36 158.33 122.12
  A 2.33 2.32 77.1 0 0 159.41 120.39
  Q 162.96 86.50 166.27 55.25
  C 166.53 52.86 167.17 43.35 172.47 48.07
  A 1.69 1.46 -79.2 0 1 172.95 48.90
  Q 173.68 52.03 175.33 61.48
  Q 178.75 81.02 182.17 100.53
  A 0.57 0.56 -4.8 0 0 182.73 101.00
  L 295.97 100.83
  Q 299.96 101.48 303.96 100.50
  Q 308.14 101.64 312.21 101.23
  Q 314.22 101.02 315.19 102.79
  C 319.03 109.74 306.98 107.92 304.00 108.29
  Q 302.36 108.05 297.25 108.00
  Q 295.92 107.99 295.96 109.00
  L 295.68 108.44
  A 0.84 0.79 -12.5 0 0 294.94 108.00
  Q 237.96 108.00 180.98 108.00
  C 177.65 108.00 175.77 106.22 175.88 102.94
  Q 175.90 102.44 175.70 101.99
  C 174.75 99.88 175.03 97.35 174.65 95.53
  Q 173.80 91.44 172.55 83.49
  Q 172.23 81.47 170.48 82.09
  A 0.73 0.63 81.2 0 0 170.05 82.77
  C 170.13 86.15 169.06 89.11 169.03 92.44
  Q 168.98 96.18 168.05 101.00
  C 167.78 102.39 168.12 104.40 167.69 106.29
  C 166.75 110.39 167.47 114.42 166.44 118.36
  C 165.73 121.05 166.19 123.70 165.61 126.47
  Q 165.06 129.04 165.06 131.12
  C 165.06 135.00 164.19 138.89 163.97 142.43
  Q 163.80 145.20 163.50 147.96
  Q 162.65 151.93 162.79 156.00
  Q 161.71 159.13 161.98 162.41
  A 1.90 1.53 61.8 0 1 161.80 163.36
  Q 158.86 169.03 155.21 163.99
  Q 154.99 163.68 154.89 163.08
  L 153.75 155.96
  Q 154.23 151.83 152.71 148.00
  C 153.13 144.48 152.14 140.56 151.98 137.74
  Q 151.60 130.85 150.90 127.01
  C 150.07 122.42 150.35 118.40 149.42 114.68
  C 148.80 112.19 149.14 109.72 148.57 107.15
  Q 148.07 104.90 148.07 102.76
  C 148.06 99.60 147.16 96.87 147.06 93.76
  Q 146.99 91.82 146.63 89.91
  C 145.98 86.47 146.21 83.31 145.53 79.97
  C 144.90 76.84 145.18 73.85 144.36 70.73
  C 143.59 67.78 144.26 65.09 143.48 61.89
  C 142.83 59.24 143.29 56.76 142.53 54.20
  C 142.14 52.86 142.14 39.98 139.63 40.91
  A 1.20 0.72 -84.6 0 0 139.07 41.67
  Q 138.18 44.93 138.06 46.76
  Q 137.64 53.21 136.45 59.58
  C 136.01 61.91 136.15 64.30 135.75 66.70
  C 134.51 74.02 133.85 81.41 132.74 88.75
  C 130.93 100.81 130.16 113.10 127.84 125.09
  Q 127.49 126.92 125.63 127.00
  C 121.77 127.16 121.51 124.71 120.61 121.26
  C 119.40 116.65 115.32 99.83 113.97 99.91
  A 0.99 0.71 -74.9 0 0 113.28 100.47
  L 110.04 107.31
  Q 109.25 108.98 106.98 109.04
  L 97.00 109.29
  L 89.81 109.06
  A 0.85 0.68 9.7 0 0 89.03 109.49
  Q 88.90 109.82 88.96 110.25
  C 88.75 109.43 88.37 109.00 87.46 109.00
  Q 81.57 108.98 75.49 109.02
  A 1.13 1.11 -21.5 0 1 74.64 108.66
  C 67.08 100.52 86.56 102.19 88.96 102.00
  Q 92.98 102.66 97.00 101.96
  Q 99.47 102.52 103.94 101.91
  A 2.87 2.86 8.2 0 0 106.15 100.26
  C 107.24 97.87 112.83 82.72 116.79 85.68
  A 3.80 3.11 14.7 0 1 118.11 87.50
  L 122.13 101.28
  A 1.05 0.77 86.8 0 0 122.69 101.96
  Q 124.20 102.50 124.40 100.93
  Q 129.33 62.50 134.29 24.08
  L 135.35 16.00
  Q 136.03 10.54 136.95 5.09
  C 137.35 2.70 139.02 -0.17 141.71 1.45
  Q 144.27 2.99 144.04 5.97
  Q 143.65 11.14 145.29 16.00
  Z"
/>
<g fill="#0A3373">
<path d="
  M 135.35 16.00
  L 134.29 24.08
  C 118.97 23.51 98.19 22.61 97.33 43.82
  Q 96.80 56.76 97.00 101.96
  Q 92.98 102.66 88.96 102.00
  Q 89.05 76.33 88.98 50.68
  Q 88.94 38.35 89.17 36.98
  C 90.77 27.67 98.15 19.58 107.15 16.81
  C 114.28 14.61 126.58 16.08 135.35 16.00
  Z"
/>
<path d="
  M 303.96 100.50
  Q 299.96 101.48 295.97 100.83
  Q 296.06 82.27 295.82 64.34
  C 295.70 55.78 297.81 41.68 292.72 33.59
  C 286.59 23.85 278.50 24.38 266.37 24.19
  Q 241.19 23.80 215.09 24.08
  A 1.07 1.05 -0.3 0 1 214.01 23.03
  L 214.01 16.93
  A 1.01 0.99 0.3 0 1 215.03 15.94
  Q 243.78 16.16 271.59 15.85
  Q 282.47 15.73 286.76 17.17
  C 297.24 20.69 303.98 30.20 303.99 41.41
  Q 304.04 70.95 303.96 100.50
  Z"
/>
<path d="
  M 145.29 16.00
  L 177.33 16.05
  A 0.56 0.50 0.6 0 1 177.88 16.55
  L 177.88 23.44
  A 0.56 0.50 -0.6 0 1 177.33 23.94
  L 145.92 24.00
  Q 145.01 20.05 145.29 16.00
  Z"
/>
<path d="
  M 304.00 108.29
  Q 303.97 119.40 304.02 130.55
  C 304.09 144.89 292.93 156.00 278.54 156.00
  Q 220.67 156.00 162.79 156.00
  Q 162.65 151.93 163.50 147.96
  Q 242.65 148.27 274.42 147.69
  C 298.52 147.25 296.07 126.27 295.96 109.00
  Q 295.92 107.99 297.25 108.00
  Q 302.36 108.05 304.00 108.29
  Z"
/>
<path d="
  M 97.00 109.29
  C 96.99 123.28 94.77 140.27 109.20 145.95
  Q 113.66 147.70 126.03 147.85
  Q 139.36 148.00 152.71 148.00
  Q 154.23 151.83 153.75 155.96
  Q 117.09 156.13 110.32 155.96
  C 101.38 155.74 92.32 145.69 89.92 138.08
  C 87.58 130.63 88.89 118.91 88.96 110.25
  Q 88.90 109.82 89.03 109.49
  A 0.85 0.68 9.7 0 1 89.81 109.06
  L 97.00 109.29
  Z"
/>
</g>
<g fill="#1867C0">
<path d="
  M 390.04 188.00
  L 390.00 192.81
  C 387.71 196.47 384.29 196.88 380.78 194.42
  C 372.44 188.58 362.24 187.91 353.17 192.57
  C 333.23 202.83 336.88 231.33 358.00 237.54
  Q 369.86 241.02 380.28 233.96
  C 384.04 231.42 387.48 231.20 390.00 235.31
  L 390.00 240.06
  C 385.12 246.27 375.48 249.24 367.94 250.00
  L 362.44 250.00
  Q 349.72 248.50 340.89 240.69
  C 315.36 218.13 332.47 179.16 364.75 178.01
  Q 379.34 177.49 390.04 188.00
  Z"
/>
<path d="
  M 38.69 250.00
  L 5.19 250.00
  C 1.22 248.93 0.50 246.38 0.50 242.41
  Q 0.49 213.61 0.51 184.81
  C 0.52 178.87 11.52 177.39 11.50 187.41
  Q 11.45 212.88 11.57 238.37
  A 0.51 0.50 90.0 0 0 12.07 238.88
  Q 24.93 239.09 37.56 238.99
  C 45.44 238.93 46.43 248.52 38.69 250.00
  Z"
/>
<path d="
  M 64.19 250.00
  L 62.44 250.00
  Q 58.02 248.54 58.01 243.50
  Q 57.97 215.38 58.02 187.25
  Q 58.03 183.97 58.81 182.51
  C 60.64 179.11 66.37 179.37 68.17 182.67
  Q 68.99 184.17 68.99 187.48
  Q 69.01 215.08 68.99 242.69
  C 68.99 246.59 68.05 249.03 64.19 250.00
  Z"
/>
<path d="
  M 93.94 250.00
  L 92.19 250.00
  Q 87.75 248.51 87.75 244.50
  Q 87.74 215.87 87.76 187.25
  C 87.76 183.48 89.15 180.01 93.25 180.01
  Q 109.72 179.97 126.18 180.03
  C 132.52 180.05 134.04 191.03 123.77 191.01
  Q 111.54 190.97 99.30 191.03
  A 0.51 0.51 0.0 0 0 98.79 191.54
  L 98.79 208.96
  A 0.51 0.51 0.0 0 0 99.30 209.47
  C 104.10 209.49 121.58 208.31 124.86 210.40
  C 128.53 212.74 128.31 217.77 124.56 219.78
  C 120.86 221.76 104.33 220.50 99.28 220.53
  A 0.51 0.51 -0.6 0 0 98.78 221.04
  Q 98.74 232.04 98.74 242.98
  C 98.74 246.74 97.59 249.07 93.94 250.00
  Z"
/>
<path d="
  M 186.69 250.00
  L 152.94 250.00
  C 149.36 249.00 148.25 246.75 148.25 243.02
  Q 148.25 215.07 148.25 187.11
  C 148.25 182.02 150.29 180.03 155.20 180.01
  Q 170.07 179.97 184.96 180.03
  C 194.23 180.06 194.42 191.06 183.85 191.00
  Q 171.88 190.94 159.88 191.08
  A 0.53 0.52 -0.6 0 0 159.36 191.60
  L 159.36 208.90
  A 0.52 0.50 0.6 0 0 159.87 209.40
  Q 170.55 209.58 181.13 209.50
  C 190.35 209.43 190.49 220.54 180.66 220.51
  Q 170.23 220.47 159.80 220.53
  A 0.51 0.51 0.0 0 0 159.29 221.04
  L 159.36 238.41
  A 0.53 0.51 0.6 0 0 159.88 238.92
  Q 172.50 239.06 185.00 239.00
  C 193.04 238.96 194.35 248.21 186.69 250.00
  Z"
/>
<path d="
  M 229.69 250.00
  L 227.94 250.00
  C 224.35 249.02 223.24 246.74 223.25 243.02
  Q 223.27 217.31 223.23 191.55
  A 0.51 0.50 -89.4 0 0 222.74 191.04
  C 218.68 191.01 208.00 191.95 204.79 190.32
  C 201.20 188.50 201.19 182.62 204.46 180.89
  Q 206.14 180.00 210.20 180.00
  Q 229.10 179.98 248.01 180.02
  C 252.34 180.03 256.22 181.50 255.48 186.48
  C 254.89 190.52 251.35 191.04 247.62 190.99
  Q 241.21 190.91 234.80 191.13
  A 0.52 0.52 -1.1 0 0 234.30 191.65
  Q 234.20 217.07 234.26 242.42
  C 234.27 246.36 233.56 248.85 229.69 250.00
  Z"
/>
<path d="
  M 310.69 250.00
  L 277.19 250.00
  C 273.22 248.93 272.50 246.38 272.50 242.40
  Q 272.49 214.88 272.51 187.37
  C 272.51 183.08 273.88 180.04 278.50 180.00
  Q 283.45 179.96 308.69 180.02
  Q 311.72 180.02 313.06 180.75
  C 316.95 182.84 316.98 188.17 313.18 190.25
  Q 311.75 191.03 308.67 191.01
  Q 296.40 190.93 284.14 191.08
  A 0.53 0.52 -0.6 0 0 283.62 191.60
  L 283.61 208.90
  A 0.53 0.50 0.6 0 0 284.13 209.40
  Q 294.59 209.57 304.94 209.50
  C 309.89 209.47 314.35 212.63 311.34 217.93
  Q 309.88 220.51 306.90 220.51
  L 284.05 220.53
  A 0.51 0.51 0.0 0 0 283.54 221.04
  L 283.61 238.41
  A 0.53 0.51 0.6 0 0 284.13 238.92
  Q 296.87 239.06 309.49 239.00
  C 317.51 238.96 318.43 248.55 310.69 250.00
  Z"
/>
</g>
</svg>
