<?xml version="1.0" encoding="utf-8"?>
<svg width="62.745251mm" height="15.091922mm" viewBox="0 0 62.745251 15.091922" version="1.1" id="svg8" xmlns="http://www.w3.org/2000/svg" xmlns:xlink="http://www.w3.org/1999/xlink">
  <g id="layer1" transform="translate(-50.724142,-194.91377)">
    <path id="path880" style="stroke: rgb(0, 0, 0); stroke-width: 0.264583px; stroke-linecap: butt; stroke-linejoin: miter; stroke-opacity: 1; fill: rgb(255, 255, 255);" d="m 63.101562,195.04688 a 3.2124079,3.2124079 0 0 0 -2.761718,1.69726 l -1.556641,2.91602 -4.722656,0.0273 a 3.212902,3.212902 0 0 0 0.01758,6.42578 h 6.617187 a 3.2124079,3.2124079 0 0 0 0.492188,-0.0391 l 0.884766,-0.006 0.423828,1.48242 a 3.2124079,3.2124079 0 0 0 5.675781,1.01758 l 2.830078,-3.84766 a 3.2124079,3.2124079 0 0 0 -2.607422,-5.11523 l -1.490234,0.01 -0.642578,-2.24218 a 3.2124079,3.2124079 0 0 0 -3.160157,-2.32617 z"/>
    <path style="stroke: rgb(0, 0, 0); stroke-width: 0.264583px; stroke-linecap: butt; stroke-linejoin: miter; stroke-opacity: 1; fill: rgb(196, 48, 48);" id="path874" d="m 63.447266,196.32227 -3.089844,5.80468 -6.253906,0.0195 -0.01758,1.50391 h 7.015624 l 1.935547,-3.83203 2.291016,8.41016 4.109375,-5.41211 h -1.871094 l -1.685547,2.4082 z" xlink:href="#path37"/>
    <path style="stroke-width: 0.353553; fill: rgb(255, 255, 255);" d="m 68.622234,29.462374 c 0,-0.583363 0.159099,-1.06066 0.353553,-1.06066 0.194455,0 0.353554,-0.880038 0.353554,-1.95564 0,-1.412197 0.147371,-2.012191 0.53033,-2.159147 0.372859,-0.143079 0.53033,-0.724678 0.53033,-1.958701 0,-1.088768 0.20136,-1.956554 0.53033,-2.285524 0.349942,-0.349942 0.53033,-1.230428 0.53033,-2.588571 0,-1.503397 0.142962,-2.1131 0.53033,-2.261746 0.366649,-0.140697 0.533801,-0.725255 0.541574,-1.893982 0.0062,-0.929761 0.244833,-1.999307 0.530331,-2.376768 0.285497,-0.377461 0.519086,-1.3624403 0.519086,-2.1888431 0,-0.8264024 0.159099,-1.6008785 0.353553,-1.721058 0.194454,-0.1201794 0.353553,-0.5273165 0.353553,-0.9047491 0,-0.6030369 0.257203,-0.6862411 2.121321,-0.6862411 1.854874,0 2.12132,0.085115 2.12132,0.677644 0,0.3727042 -0.186505,0.7398125 -0.414457,0.8157962 -0.234619,0.078206 -0.485466,1.1198501 -0.578106,2.4005901 -0.09001,1.244341 -0.380799,2.479587 -0.646204,2.744991 -0.265404,0.265405 -0.482553,1.177746 -0.482553,2.027425 0,0.849679 -0.159099,1.643199 -0.353554,1.763379 -0.194454,0.120179 -0.353553,0.985132 -0.353553,1.922118 0,1.083003 -0.193194,1.863947 -0.53033,2.143746 -0.359288,0.298182 -0.53033,1.098141 -0.53033,2.480338 0,1.487364 -0.143705,2.095348 -0.53033,2.24371 -0.82361,0.316049 -0.642192,1.527464 0.265165,1.770626 0.437522,0.117252 3.142205,0.215357 6.010407,0.218012 l 5.214913,0.0048 v 1.237437 c 0,0.766032 -0.269374,1.506811 -0.707107,1.944544 -0.664252,0.664251 -1.178511,0.707106 -8.485281,0.707106 h -7.778175 z" id="path889" transform="matrix(0.26458333,0,0,0.26458333,60.684074,177.37477)"/>
    <path id="path37" style="stroke: rgb(0, 0, 0); stroke-width: 0.264583px; stroke-linecap: butt; stroke-linejoin: miter; stroke-opacity: 1; fill: rgb(220, 71, 71);" d="m 63.447266,196.32227 -3.089844,5.80468 -6.253906,0.0195 -0.01758,1.50391 h 7.015624 l 1.935547,-3.83203 2.291016,8.41016 4.109375,-5.41211 h -1.871094 l -1.685547,2.4082 z"/>
    <path style="font-style:normal;font-weight:normal;font-size:10.5833px;line-height:0;font-family:sans-serif;fill:#000000;fill-opacity:1;stroke:none;stroke-width:0.264583" id="path918" d="m 111.78516,198.33398 c -0.43989,0 -0.84306,0.0521 -1.20508,0.16407 -0.35132,0.10631 -0.6677,0.2552 -0.94727,0.44531 -0.27196,0.18392 -0.51357,0.40041 -0.7207,0.64453 a 0.24236042,0.24236042 0 0 0 0,0.002 c -0.19952,0.23943 -0.37123,0.49315 -0.51367,0.75977 -0.14059,0.25977 -0.25724,0.52562 -0.34766,0.79687 a 0.24236042,0.24236042 0 0 0 0,0.002 c -0.0847,0.26474 -0.15357,0.51737 -0.20703,0.75976 a 0.24236042,0.24236042 0 0 0 -0.002,0.004 c -0.0495,0.2406 -0.0852,0.46255 -0.10352,0.66797 -0.0177,0.19779 -0.0254,0.36067 -0.0254,0.49219 0,0.3321 0.0461,0.65683 0.13477,0.9707 0.0914,0.32364 0.24436,0.61823 0.45898,0.875 a 0.24236042,0.24236042 0 0 0 0.002,0.002 c 0.22407,0.25944 0.51786,0.46185 0.86914,0.61133 0.36397,0.15488 0.80177,0.22656 1.31055,0.22656 0.31904,0 0.63422,-0.0321 0.94727,-0.0977 0.3106,-0.065 0.63178,-0.16115 0.96484,-0.28516 a 0.24236042,0.24236042 0 0 0 0.1582,-0.22656 v -1.14063 a 0.24236042,0.24236042 0 0 0 -0.33593,-0.22461 c -0.11747,0.049 -0.24088,0.0957 -0.37305,0.13868 -0.13192,0.0429 -0.26234,0.0806 -0.39258,0.11328 -0.1268,0.0293 -0.25659,0.0522 -0.38672,0.0723 -0.12116,0.0157 -0.23249,0.0254 -0.33008,0.0254 -0.2939,0 -0.51045,-0.0449 -0.64843,-0.11133 -0.15569,-0.0783 -0.26094,-0.16879 -0.33008,-0.26757 -0.0763,-0.11209 -0.12241,-0.22638 -0.14453,-0.35547 -0.0227,-0.15591 -0.0352,-0.30172 -0.0352,-0.43946 0,-0.11816 0.0124,-0.28537 0.0391,-0.49218 0.0259,-0.2036 0.0717,-0.42196 0.13477,-0.6543 0.0648,-0.22618 0.15226,-0.45484 0.26367,-0.6875 0.10741,-0.2243 0.2409,-0.42251 0.40039,-0.59766 0.15914,-0.17443 0.3434,-0.31642 0.5625,-0.42773 0.20906,-0.10453 0.46104,-0.16016 0.76172,-0.16016 0.25109,0 0.49153,0.0277 0.72461,0.082 0.24593,0.0565 0.47134,0.12215 0.67383,0.19727 a 0.24236042,0.24236042 0 0 0 0.32226,-0.17773 l 0.24219,-1.17383 a 0.24236042,0.24236042 0 0 0 -0.16601,-0.28125 c -0.25742,-0.0798 -0.53371,-0.14065 -0.83008,-0.1836 h -0.002 c -0.29588,-0.0468 -0.60318,-0.0684 -0.92382,-0.0684 z m -36.828129,0.0937 a 0.24236042,0.24236042 0 0 0 -0.238281,0.19532 l -1.347656,6.7539 a 0.24236042,0.24236042 0 0 0 0.238281,0.28907 h 4.144531 a 0.24236042,0.24236042 0 0 0 0.238282,-0.19532 l 0.210937,-1.09179 a 0.24236042,0.24236042 0 0 0 -0.238281,-0.28907 h -2.550782 l 1.074219,-5.37304 A 0.24236042,0.24236042 0 0 0 76.25,198.42773 Z m 5.486328,0 a 0.24236042,0.24236042 0 0 0 -0.238281,0.19336 l -0.21289,1.04297 a 0.24236042,0.24236042 0 0 0 0.238281,0.29102 h 1.203125 l -0.84375,4.18164 h -1.298828 a 0.24236042,0.24236042 0 0 0 -0.238282,0.19726 l -0.201172,1.04493 a 0.24236042,0.24236042 0 0 0 0.238282,0.28711 h 4.273437 a 0.24236042,0.24236042 0 0 0 0.238281,-0.19727 l 0.201172,-1.04492 a 0.24236042,0.24236042 0 0 0 -0.238281,-0.28711 h -1.185547 l 0.837891,-4.18164 h 1.292969 a 0.24236042,0.24236042 0 0 0 0.238281,-0.19336 l 0.212891,-1.04297 a 0.24236042,0.24236042 0 0 0 -0.238282,-0.29102 z m 5.910157,0 a 0.24236042,0.24236042 0 0 0 -0.238282,0.19532 l -1.353515,6.7539 A 0.24236042,0.24236042 0 0 0 85,205.66602 h 1.291016 a 0.24236042,0.24236042 0 0 0 0.238281,-0.19532 l 0.507812,-2.57031 h 2.353516 a 0.24236042,0.24236042 0 0 0 0.238281,-0.19336 l 0.212891,-1.04297 a 0.24236042,0.24236042 0 0 0 -0.238281,-0.29101 h -2.257813 l 0.275391,-1.38282 h 2.5 a 0.24236042,0.24236042 0 0 0 0.238281,-0.19335 l 0.220703,-1.07813 a 0.24236042,0.24236042 0 0 0 -0.238281,-0.29102 z m 5.728515,0 a 0.24236042,0.24236042 0 0 0 -0.238281,0.19532 l -1.353516,6.7539 a 0.24236042,0.24236042 0 0 0 0.238282,0.28907 h 4.060546 a 0.24236042,0.24236042 0 0 0 0.238282,-0.19532 l 0.21289,-1.07617 a 0.24236042,0.24236042 0 0 0 -0.238281,-0.28906 h -2.472656 l 0.279297,-1.39063 h 2.445312 a 0.24236042,0.24236042 0 0 0 0.238282,-0.19531 l 0.203124,-1.04883 a 0.24236042,0.24236042 0 0 0 -0.238281,-0.28906 h -2.349609 l 0.242187,-1.19531 h 2.572266 a 0.24236042,0.24236042 0 0 0 0.238281,-0.19336 l 0.220703,-1.07422 a 0.24236042,0.24236042 0 0 0 -0.238281,-0.29102 z m 5.191407,0 a 0.24236042,0.24236042 0 0 0 -0.236329,0.19141 l -0.222656,1.05859 a 0.24236042,0.24236042 0 0 0 0.236328,0.29297 h 1.554688 l -1.074219,5.40625 a 0.24236042,0.24236042 0 0 0 0.238281,0.28907 h 1.302735 a 0.24236042,0.24236042 0 0 0 0.238281,-0.19532 l 1.091793,-5.5 h 1.65039 a 0.24236042,0.24236042 0 0 0 0.23633,-0.1914 l 0.22266,-1.0586 a 0.24236042,0.24236042 0 0 0 -0.23633,-0.29297 z m 6.265622,0 a 0.24236042,0.24236042 0 0 0 -0.23828,0.19532 l -1.35351,6.7539 a 0.24236042,0.24236042 0 0 0 0.23828,0.28907 h 4.0625 a 0.24236042,0.24236042 0 0 0 0.23828,-0.19532 l 0.21094,-1.07617 a 0.24236042,0.24236042 0 0 0 -0.23829,-0.28906 h -2.47265 l 0.27929,-1.39063 h 2.44727 a 0.24236042,0.24236042 0 0 0 0.23828,-0.19726 l 0.20117,-1.04883 a 0.24236042,0.24236042 0 0 0 -0.23828,-0.28711 h -2.34961 l 0.24219,-1.19531 h 2.57227 a 0.24236042,0.24236042 0 0 0 0.23632,-0.19336 l 0.22266,-1.07422 a 0.24236042,0.24236042 0 0 0 -0.23633,-0.29102 z" xlink:href="#text893"/>
    <text style="fill: rgb(196, 48, 48); font-family: Consolas; font-size: 10.5833px; font-style: italic; font-weight: 700; letter-spacing: -0.0899583px; line-height: 22.7541px; stroke-width: 0.264583px; word-spacing: 2.17488px; white-space: pre;" id="text893" x="73.2277" y="204.253" dx="-0.11" dy="1.17">LIFETEC</text>
  </g>
</svg>