<?xml version="1.0" encoding="utf-8"?>
<svg width="62.745251mm" height="15.091922mm" viewBox="0 0 62.745251 15.091922" version="1.1" id="svg8" xmlns="http://www.w3.org/2000/svg" xmlns:xlink="http://www.w3.org/1999/xlink">
  <g id="layer1" transform="translate(-50.724142,-194.91377)">
    <path id="path880" style="fill-opacity: 0; fill: rgb(255, 255, 255);" d="m 63.101562,195.04688 a 3.2124079,3.2124079 0 0 0 -2.761718,1.69726 l -1.556641,2.91602 -4.722656,0.0273 a 3.212902,3.212902 0 0 0 0.01758,6.42578 h 6.617187 a 3.2124079,3.2124079 0 0 0 0.492188,-0.0391 l 0.884766,-0.006 0.423828,1.48242 a 3.2124079,3.2124079 0 0 0 5.675781,1.01758 l 2.830078,-3.84766 a 3.2124079,3.2124079 0 0 0 -2.607422,-5.11523 l -1.490234,0.01 -0.642578,-2.24218 a 3.2124079,3.2124079 0 0 0 -3.160157,-2.32617 z"/>
    <path style="fill: rgb(196, 48, 48);" id="path874" d="m 63.447266,196.32227 -3.089844,5.80468 -6.253906,0.0195 -0.01758,1.50391 h 7.015624 l 1.935547,-3.83203 2.291016,8.41016 4.109375,-5.41211 h -1.871094 l -1.685547,2.4082 z" xlink:href="#path37"/>
    <path style="stroke-width: 0.353553; fill: rgb(255, 255, 255);" d="m 68.622234,29.462374 c 0,-0.583363 0.159099,-1.06066 0.353553,-1.06066 0.194455,0 0.353554,-0.880038 0.353554,-1.95564 0,-1.412197 0.147371,-2.012191 0.53033,-2.159147 0.372859,-0.143079 0.53033,-0.724678 0.53033,-1.958701 0,-1.088768 0.20136,-1.956554 0.53033,-2.285524 0.349942,-0.349942 0.53033,-1.230428 0.53033,-2.588571 0,-1.503397 0.142962,-2.1131 0.53033,-2.261746 0.366649,-0.140697 0.533801,-0.725255 0.541574,-1.893982 0.0062,-0.929761 0.244833,-1.999307 0.530331,-2.376768 0.285497,-0.377461 0.519086,-1.3624403 0.519086,-2.1888431 0,-0.8264024 0.159099,-1.6008785 0.353553,-1.721058 0.194454,-0.1201794 0.353553,-0.5273165 0.353553,-0.9047491 0,-0.6030369 0.257203,-0.6862411 2.121321,-0.6862411 1.854874,0 2.12132,0.085115 2.12132,0.677644 0,0.3727042 -0.186505,0.7398125 -0.414457,0.8157962 -0.234619,0.078206 -0.485466,1.1198501 -0.578106,2.4005901 -0.09001,1.244341 -0.380799,2.479587 -0.646204,2.744991 -0.265404,0.265405 -0.482553,1.177746 -0.482553,2.027425 0,0.849679 -0.159099,1.643199 -0.353554,1.763379 -0.194454,0.120179 -0.353553,0.985132 -0.353553,1.922118 0,1.083003 -0.193194,1.863947 -0.53033,2.143746 -0.359288,0.298182 -0.53033,1.098141 -0.53033,2.480338 0,1.487364 -0.143705,2.095348 -0.53033,2.24371 -0.82361,0.316049 -0.642192,1.527464 0.265165,1.770626 0.437522,0.117252 3.142205,0.215357 6.010407,0.218012 l 5.214913,0.0048 v 1.237437 c 0,0.766032 -0.269374,1.506811 -0.707107,1.944544 -0.664252,0.664251 -1.178511,0.707106 -8.485281,0.707106 h -7.778175 z" id="path889" transform="matrix(0.26458333,0,0,0.26458333,60.684074,177.37477)"/>
    <text style="fill: rgb(187, 44, 44); font-family: Consolas; font-size: 10.5833px; font-style: italic; font-weight: 700; letter-spacing: -0.0899583px; line-height: 22.7541px; word-spacing: 2.17488px; white-space: pre;" id="text893" x="73.2277" y="204.253" dx="-0.11" dy="1.17">LIFETEC</text>
  </g>
</svg>